<svg xmlns="http://www.w3.org/2000/svg" viewBox="0 0 100 100" role="img" aria-label="凱西・伍德手繪示意肖像"><defs><clipPath id="c"><circle cx="50" cy="50" r="50"/></clipPath></defs><g clip-path="url(#c)"><rect width="100" height="100" fill="#aca0ae"/><path d="M11 105Q13 76 40 74h20Q88 78 89 105" fill="#293d48"/><path d="M39 72l11 22 12-22" fill="#f4eee4"/><path d="M47 86h6l3 18H44Z" fill="#9e6b39"/><path d="M19 80V41Q20 8 50 11Q82 9 82 42V81L70 59H30Z" fill="#835939"/><ellipse cx="50" cy="47" rx="26" ry="31" fill="#e5bc99"/><path d="M31 39l11-2m15 0 12 2" stroke="#5b5149" stroke-width="2" fill="none"/><g fill="#273641"><circle cx="38" cy="47" r="2"/><circle cx="63" cy="47" r="2"/></g><g fill="none" stroke="#263843" stroke-width="2.2"><rect x="26" y="41" width="20" height="14" rx="5"/><rect x="54" y="41" width="20" height="14" rx="5"/><path d="M46 46h8M20 44h6m48 0h6"/></g><path d="M49 46l-3 11h7M39 63q12 10 23-1" stroke="#8d6150" stroke-width="1.7" fill="none"/><path d="M27 27q19-15 41-1" stroke="#ffffff66" stroke-width="4" fill="none"/></g></svg>